<svg width="144" height="24" fill="none" xmlns="http://www.w3.org/2000/svg"><path fill-rule="evenodd" clip-rule="evenodd" d="M2.02 19.743a2.02 2.02 0 0 0 2.022-2.022V2.022a2.02 2.02 0 1 0-4.042 0v15.699a2.02 2.02 0 0 0 2.02 2.022Zm11.63.16c4.44 0 7.738-3.326 7.738-7.424v-.053c0-4.098-3.27-7.37-7.685-7.37-4.44 0-7.737 3.325-7.737 7.423v.053c0 4.098 3.27 7.37 7.684 7.37Zm-3.696-7.424c0 2.102 1.516 3.938 3.75 3.938 2.313 0 3.695-1.783 3.695-3.885v-.053c0-2.102-1.515-3.938-3.749-3.938-2.313 0-3.696 1.783-3.696 3.885v.053Zm20.165 7.423c4.44 0 7.738-3.326 7.738-7.423v-.053c0-4.098-3.271-7.37-7.685-7.37-4.44 0-7.738 3.325-7.738 7.423v.053c0 4.098 3.27 7.37 7.685 7.37Zm-3.696-7.423c0 2.102 1.516 3.938 3.749 3.938 2.313 0 3.696-1.783 3.696-3.885v-.053c0-2.102-1.516-3.938-3.75-3.938-2.313 0-3.695 1.783-3.695 3.885v.053ZM41.615 24a2.02 2.02 0 0 0 2.021-2.022V17.72c.957 1.144 2.287 2.128 4.44 2.128 3.377 0 6.489-2.607 6.489-7.37v-.053c0-4.763-3.165-7.37-6.488-7.37-2.101 0-3.457.984-4.44 2.314v-.186a2.02 2.02 0 1 0-4.043 0v14.794A2.02 2.02 0 0 0 41.615 24Zm1.968-11.521c0 2.368 1.569 3.938 3.457 3.938s3.483-1.543 3.483-3.938v-.053c0-2.368-1.596-3.938-3.483-3.938-1.888 0-3.457 1.57-3.457 3.938v.053Zm17.772 7.37c3.084 0 5.45-1.437 5.45-4.603v-.053c0-2.608-2.313-3.566-4.307-4.23l-.449-.154c-1.347-.456-2.45-.83-2.45-1.55v-.053c0-.559.506-.984 1.49-.984.85 0 1.94.346 3.084.904.266.133.452.187.745.187.904 0 1.622-.692 1.622-1.597 0-.692-.373-1.224-.958-1.516-1.382-.692-2.925-1.091-4.414-1.091-2.871 0-5.211 1.623-5.211 4.523v.053c0 2.767 2.26 3.699 4.254 4.284.183.056.364.11.54.161 1.333.394 2.412.713 2.412 1.489v.053c0 .638-.532 1.064-1.702 1.064-1.143 0-2.5-.426-3.856-1.277a1.549 1.549 0 0 0-.797-.213c-.904 0-1.596.692-1.596 1.597 0 .638.346 1.117.771 1.383 1.729 1.118 3.617 1.623 5.372 1.623Zm14.022-.425c-.745.292-1.436.399-2.313.399-2.473 0-4.148-.985-4.148-4.284V8.78h-.133a1.725 1.725 0 0 1-1.729-1.729c0-.958.771-1.73 1.729-1.73h.133V3.54a2.02 2.02 0 1 1 4.041 0v1.783h1.782c.957 0 1.728.771 1.728 1.729 0 .958-.771 1.73-1.728 1.73h-1.782v6.093c0 .93.4 1.383 1.303 1.383.075 0 .192-.008.294-.016.08-.005.15-.01.185-.01.904 0 1.675.745 1.675 1.676 0 .718-.479 1.304-1.037 1.517Zm7.455.425c2.047 0 3.244-1.09 4.174-2.288v.16a2.02 2.02 0 1 0 4.042 0V7.184a2.02 2.02 0 1 0-4.042 0v6.093c0 1.916-.984 2.9-2.526 2.9-1.542 0-2.446-.984-2.446-2.9V7.184a2.02 2.02 0 1 0-4.042 0v7.37c0 3.273 1.782 5.295 4.84 5.295Zm20.935-2.315c-.983 1.33-2.339 2.315-4.44 2.315-3.324 0-6.488-2.607-6.488-7.37v-.053c0-4.763 3.111-7.37 6.488-7.37 2.154 0 3.483.984 4.44 2.128V2.022a2.021 2.021 0 1 1 4.042 0v15.699a2.02 2.02 0 1 1-4.042 0v-.187Zm-3.403-1.117c-1.888 0-3.483-1.57-3.483-3.938v-.053c0-2.395 1.595-3.938 3.483-3.938 1.888 0 3.457 1.57 3.457 3.938v.053c0 2.368-1.569 3.938-3.457 3.938Zm14.341-14.448c0 1.17-.983 1.916-2.26 1.916-1.276 0-2.26-.745-2.26-1.916v-.053c0-1.171.984-1.89 2.26-1.89 1.277 0 2.26.719 2.26 1.89v.053Zm-2.26 17.774a2.02 2.02 0 0 0 2.021-2.022V7.184a2.02 2.02 0 1 0-4.042 0v10.537a2.02 2.02 0 0 0 2.021 2.022Zm19.367-7.264c0 4.098-3.297 7.423-7.737 7.423-4.414 0-7.685-3.272-7.685-7.37v-.053c0-4.098 3.297-7.424 7.738-7.424 4.414 0 7.684 3.273 7.684 7.37v.054Zm-7.684 3.938c-2.234 0-3.749-1.836-3.749-3.938v-.053c0-2.102 1.382-3.885 3.696-3.885 2.233 0 3.749 1.836 3.749 3.938v.053c0 2.102-1.383 3.885-3.696 3.885ZM144 15.247c0 3.165-2.367 4.602-5.451 4.602-1.755 0-3.643-.505-5.371-1.623a1.61 1.61 0 0 1-.771-1.383c0-.905.691-1.597 1.595-1.597.293 0 .585.08.798.213 1.356.851 2.712 1.277 3.855 1.277 1.17 0 1.702-.426 1.702-1.064v-.053c0-.776-1.079-1.095-2.412-1.489a68.54 68.54 0 0 1-.539-.161c-1.995-.585-4.255-1.517-4.255-4.284v-.053c0-2.9 2.34-4.523 5.212-4.523 1.489 0 3.031.399 4.414 1.09.585.293.957.825.957 1.517 0 .905-.718 1.597-1.622 1.597-.292 0-.479-.054-.744-.187-1.144-.558-2.234-.904-3.085-.904-.984 0-1.489.425-1.489.984v.053c0 .72 1.103 1.094 2.45 1.55l.448.153c1.995.665 4.308 1.623 4.308 4.23v.054Z" fill="#fff"/></svg>